<svg id="hair2" xmlns="http://www.w3.org/2000/svg" xmlns:xlink="http://www.w3.org/1999/xlink" viewBox="0 0 316.65 1023.63"><defs><style>.cls-1{opacity:0.55;}.cls-2{fill:url(#linear-gradient);}.cls-3{fill:#fff;}.cls-4{fill:url(#linear-gradient-2);}</style><linearGradient id="linear-gradient" x1="666" y1="1051.56" x2="666" y2="-40.56" gradientUnits="userSpaceOnUse"><stop offset="0" stop-color="#fff"/><stop offset="1"/></linearGradient><linearGradient id="linear-gradient-2" x1="710.82" y1="1012.9" x2="710.82" y2="-79.22" gradientTransform="matrix(1.19, -0.11, 0.09, 1, -274.99, 115.18)" xlink:href="#linear-gradient"/></defs><title>hair2</title><g id="gradient-strand2" class="cls-1"><path class="cls-2" d="M647,299.08C643.31,191.62,698.52,93,757.4.37H653.55C639.39,27,628.66,59.21,618.31,83.7c-29.7,70.3-51.24,146.65-41.21,223.57,12,92.25,67.38,174.71,101.4,262.42,24.35,62.81,37.84,128.79,43.24,195.12,2.88,35.48,3.46,71.33-2.73,106.47-9.07,51.42-32.24,99.59-57.92,146.51,30.74-44.82,59.25-91.14,73.45-142.39,9.5-34.31,12.34-70,12.84-105.65.93-66.56-6.21-133.64-24.48-198.71C697.39,480.12,650.14,392.18,647,299.08Z" transform="translate(-486.42 -0.37)"/></g><g id="single-strand3" class="cls-1"><path class="cls-3" d="M757.75,554.8c-34-83.08-89.41-161.17-101.41-248.54C641.82,200.55,692.57,97.53,745,.37H741.9C687.07,101.32,631,208.82,646.17,319.26c12,87.37,67.38,165.46,101.41,248.54,24.36,59.46,37.85,121.92,43.24,184.72,2.89,33.6,3.47,67.53-2.73,100.8-11.25,60.43-44.23,116.12-76.78,170.68l10.17-13C754,956.44,787,900.75,798.26,840.32c6.19-33.27,5.62-67.2,2.73-100.8C795.59,676.72,782.1,614.26,757.75,554.8Z" transform="translate(-486.42 -0.37)"/></g><g id="single-strand2" class="cls-1"><path class="cls-3" d="M612,282.71C608.51,181.56,657.24,88.27,712.08.37h-3.51c-58,91.57-111.64,188.93-108,294.92,3.17,93.1,50.42,181,75.93,272C694.74,632.32,701.88,699.4,701,766c-.51,35.61-3.34,71.34-12.84,105.65-12,43.29-34.2,83.06-59.33,121.38q-6,11.09-12.15,22.07c34.23-49.08,67.25-99.57,82.9-156,9.5-34.3,12.33-70,12.83-105.64.94-66.57-6.21-133.65-24.47-198.72C662.38,463.75,615.12,375.81,612,282.71Z" transform="translate(-486.42 -0.37)"/></g><g id="gradient-strand" class="cls-1"><path class="cls-4" d="M691.24,563.84C652.75,476,588.59,393.39,576.57,301,563.1,197.45,616.6,96.36,676.52.37H559.26C544,28.84,533.79,63.28,523.32,89.49,494.1,162.67,475.15,241,493.93,316.56c22.51,90.61,95.85,166.88,144.2,250.65,34.62,60,56.55,124.27,68.86,189.76,6.58,35,10.44,70.69,6.16,106.35-6.27,52.17-29.66,102.61-56.15,152.07,32.71-47.9,62.64-97.06,75-149.62,8.3-35.18,8.52-71.07,6-106.59C733.25,692.77,718.79,626.72,691.24,563.84Z" transform="translate(-486.42 -0.37)"/></g></svg>